mastitorrents.com
 
http://mastitorrents.com/forums/index.php

Format : AVI
Format/Info : Audio Video Interleave
Format profile : OpenDML
File size : 699 MiB
Overall bit rate : 672 Kbps
Writing application : AVI-Mux GUI 1.17.8.3, Feb 16 201019:42:50

Video
ID : 0
Format : MPEG-4 Visual
Format profile : Advanced Simple@L5
Format settings, BVOP : Yes
Format settings, QPel : No
Format settings, GMC : No warppoints
Format settings, Matrix : Default (H.263)
Codec ID : XVID
Codec ID/Hint : XviD
Bit rate : 602 Kbps
Width : 608 pixels
Height : 272 pixels
Display aspect ratio : 2.25:1
Frame rate : 29.970 fps
Color space : YUV
Chroma subsampling : 4:2:0
Bit depth : 8 bits
Scan type : Progressive
Bits/(Pixel*Frame) : 0.121
Stream size : 621 MiB (90%)
Writing library : XviD 1.2.1 (UTC 2008-12-04)

Audio
ID : 1
Format : MPEG Audio
Format version : Version 1
Format profile : Layer 3
Codec ID : 55
Codec ID/Hint : MP3
Bit rate mode : Variable
Bit rate : 60.3 Kbps
Nominal bit rate : 64.0 Kbps
Channel(s) : 1 channel
Sampling rate : 48.0 KHz
Stream size : 62.1 MiB (9%)
Alignment : Aligned on interleaves
Interleave, duration : 24 ms (0.72 video frame)